<svg 
    width="18" 
    height="11" 
    viewBox="0 0 18 11" 
    fill="none" 
    xmlns="http://www.w3.org/2000/svg">
    <path 
        fill-rule="evenodd" 
        clip-rule="evenodd" 
        d="M1.29279 1.29358C1.48031 1.10611 1.73462 1.0008 1.99979 1.0008C2.26495 1.0008 2.51926 1.10611 2.70679 1.29358L8.99979 7.58659L15.2928 1.29358C15.385 1.19807 15.4954 1.12189 15.6174 1.06948C15.7394 1.01707 15.8706 0.989488 16.0034 0.988334C16.1362 0.98718 16.2678 1.01248 16.3907 1.06276C16.5136 1.11304 16.6253 1.1873 16.7192 1.28119C16.8131 1.37508 16.8873 1.48673 16.9376 1.60963C16.9879 1.73253 17.0132 1.86421 17.012 1.99699C17.0109 2.12976 16.9833 2.26099 16.9309 2.38299C16.8785 2.50499 16.8023 2.61534 16.7068 2.70758L9.70679 9.70759C9.51926 9.89506 9.26495 10.0004 8.99979 10.0004C8.73462 10.0004 8.48031 9.89506 8.29279 9.70759L1.29279 2.70758C1.10532 2.52006 1 2.26575 1 2.00058C1 1.73542 1.10532 1.48111 1.29279 1.29358Z" 
        fill="#333333" 
        stroke="#333333"/>
</svg>